<svg width="16" height="16" viewBox="0 0 16 16" fill="none" xmlns="http://www.w3.org/2000/svg">
<g clip-path="url(#clip0)">
<path fill-rule="evenodd" clip-rule="evenodd" d="M7.76107 10.4641C7.2037 10.4641 6.7583 10.9267 6.7583 11.4775C6.7583 12.0143 7.18978 12.4909 7.76107 12.4909C8.32904 12.4909 8.77447 12.0177 8.77447 11.4775C8.77447 10.9234 8.3152 10.4641 7.76107 10.4641ZM6.95375 11.4541C6.96618 11.0183 7.32262 10.6593 7.76106 10.6593C8.20743 10.6593 8.57935 11.0313 8.57935 11.4776C8.57935 11.4853 8.57924 11.4929 8.57902 11.5005C8.57924 11.4929 8.57935 11.4852 8.57935 11.4775C8.57935 11.0312 8.20743 10.6592 7.76107 10.6592C7.32259 10.6592 6.96612 11.0182 6.95375 11.4541Z"/>
<path fill-rule="evenodd" clip-rule="evenodd" d="M7.75175 7.44966L7.75175 7.44965L7.75059 7.45065C7.58797 7.59085 7.39042 7.78412 7.23503 8.06976C7.07897 8.35661 6.97086 8.7264 6.97086 9.21376C6.97086 9.49394 7.00536 9.73603 7.14552 9.90261C7.2951 10.0804 7.5181 10.1209 7.75046 10.1209C8.03583 10.1209 8.24886 10.0573 8.39079 9.92774C8.53647 9.79472 8.57256 9.62436 8.57256 9.49007C8.57256 9.20773 8.57721 9.02527 8.63896 8.85736C8.69783 8.69729 8.81734 8.53079 9.09255 8.31559C9.23881 8.20182 9.55188 7.95351 9.82879 7.6007C10.1052 7.24853 10.3579 6.77649 10.3579 6.21693C10.3579 5.07023 9.32238 4.26831 7.89924 4.26831C6.39332 4.26831 5.6106 5.17262 5.6106 5.88745C5.6106 6.15645 5.72716 6.36274 5.89443 6.49764C6.05634 6.62822 6.26027 6.68832 6.44333 6.68832C6.64451 6.68832 6.78605 6.61215 6.89437 6.50241C6.94418 6.45194 6.98532 6.39618 7.02041 6.34577C7.03574 6.32374 7.04907 6.30406 7.06183 6.28522L7.06184 6.2852C7.08147 6.2562 7.09975 6.22922 7.12185 6.19882C7.18787 6.10804 7.25809 6.03105 7.36228 5.97374C7.46673 5.9163 7.62132 5.87004 7.86735 5.87004C8.10815 5.87004 8.30408 5.92356 8.43378 6.01335C8.55519 6.09741 8.62869 6.21882 8.62869 6.39756C8.62869 6.60979 8.52073 6.78858 8.34492 6.96318C8.25729 7.05021 8.15764 7.13135 8.05399 7.21192C8.02761 7.23242 8.00051 7.25322 7.97323 7.27416L7.97321 7.27418C7.89705 7.33265 7.81943 7.39224 7.75175 7.44966ZM8.08838 7.43177C8.01354 7.48923 7.94173 7.54436 7.87799 7.59844C7.69921 7.75257 7.48822 7.96393 7.34257 8.29271C7.48822 7.96407 7.69914 7.75277 7.87788 7.59868C7.94162 7.5446 8.01343 7.48947 8.08828 7.43201C8.33775 7.24048 8.62092 7.02308 8.75116 6.73254C8.62087 7.02296 8.33779 7.24029 8.08839 7.43176L8.08838 7.43177ZM8.34228 9.66919C8.36831 9.61121 8.37744 9.54927 8.37744 9.49007C8.37744 9.18684 8.38065 8.954 8.48012 8.73011C8.38055 8.95407 8.37733 9.18697 8.37733 9.49032C8.37733 9.54943 8.36822 9.61128 8.34228 9.66919ZM9.99786 6.95532C10.0981 6.73189 10.1627 6.48442 10.1627 6.21717C10.1627 5.21821 9.2594 4.46368 7.89913 4.46368C6.76999 4.46368 6.12141 4.99029 5.89637 5.49436C6.12131 4.99022 6.76992 4.46343 7.89924 4.46343C9.25951 4.46343 10.1628 5.21797 10.1628 6.21693C10.1628 6.48427 10.0981 6.73183 9.99786 6.95532Z"/>
<path fill-rule="evenodd" clip-rule="evenodd" d="M7.99995 0.000244141C3.57869 0.000244141 0 3.57833 0 8.00019V15.1953C0 15.6398 0.360345 16.0001 0.804873 16.0001H7.99995C12.4212 16.0001 15.9999 12.4221 15.9999 8.00019C15.9999 3.57893 12.4218 0.000244141 7.99995 0.000244141ZM7.99995 14.3904H1.60975V8.00019C1.60975 4.46843 4.46771 1.60999 7.99995 1.60999C11.5317 1.60999 14.3902 4.46796 14.3902 8.00019C14.3902 11.532 11.5322 14.3904 7.99995 14.3904ZM7.99995 0.195365C3.68644 0.195365 0.195121 3.6861 0.195121 8.00019V15.1953C0.195121 15.3781 0.275612 15.5422 0.403099 15.654C0.275642 15.5422 0.195172 15.3782 0.195172 15.1953V8.00024C0.195172 3.68615 3.68649 0.19541 8 0.19541C9.99062 0.19541 11.8059 0.938751 13.1839 2.16321C11.8059 0.938724 9.99059 0.195365 7.99995 0.195365ZM14.5853 8.00019C14.5853 11.6397 11.64 14.5855 7.99995 14.5855H1.41468V14.5856H8C11.64 14.5856 14.5853 11.6398 14.5853 8.00024C14.5853 6.03626 13.7277 4.27451 12.3663 3.06852C13.7277 4.27451 14.5853 6.03624 14.5853 8.00019Z"/>
</g>
<defs>
<clipPath id="clip0">
<rect width="16" height="16" fill="white"/>
</clipPath>
</defs>
</svg>
