<svg width="16" height="16" viewBox="0 0 16 16" fill="none" xmlns="http://www.w3.org/2000/svg">
<g clip-path="url(#clip0)">
<path fill-rule="evenodd" clip-rule="evenodd" d="M7.43151 1.69106H1.92217C1.70301 1.69106 1.50516 1.88377 1.50516 2.14633V13.8536C1.50516 14.1162 1.70303 14.3089 1.92217 14.3089H7.43151C7.88877 14.3089 8.23877 14.6983 8.23877 15.1544C8.23877 15.6105 7.88879 16 7.43151 16H1.92217C0.790946 16 -0.109375 15.0259 -0.109375 13.8536V2.14636C-0.109375 0.97414 0.79095 3.05176e-05 1.92217 3.05176e-05H7.43151C7.88877 3.05176e-05 8.23877 0.389425 8.23877 0.845545C8.23877 1.30166 7.88877 1.69106 7.43151 1.69106ZM1.72417 14.4692C1.7863 14.4918 1.85292 14.5041 1.92222 14.5041H7.43156C7.49502 14.5041 7.55619 14.5143 7.61371 14.5332C7.55618 14.5143 7.49499 14.504 7.43151 14.504H1.92217C1.85289 14.504 1.78628 14.4918 1.72417 14.4692ZM1.32589 15.6993C0.605129 15.4356 0.0857474 14.7078 0.0857474 13.8536V2.14636C0.0857474 1.07059 0.909688 0.195154 1.92217 0.195154H7.43151C7.47383 0.195154 7.51513 0.199697 7.55501 0.208348C7.51514 0.199703 7.47386 0.195171 7.43156 0.195171H1.92222C0.909735 0.195171 0.0857942 1.07061 0.0857942 2.14637V13.8537C0.0857942 14.7078 0.605153 15.4356 1.32589 15.6993Z"/>
<path fill-rule="evenodd" clip-rule="evenodd" d="M15.9559 8.00003C15.9559 8.22799 15.8701 8.44716 15.7144 8.61089L11.9122 12.5976C11.587 12.9396 11.0571 12.9343 10.7365 12.5893C10.422 12.2508 10.4251 11.7099 10.7447 11.3754L13.1394 8.86444H6.32535C5.85782 8.86444 5.5 8.4663 5.5 8C5.5 7.53372 5.85781 7.13553 6.32535 7.13553H13.1394L10.7445 4.62441C10.4248 4.28969 10.4233 3.74871 10.7367 3.41052C10.8969 3.23849 11.1112 3.14884 11.3283 3.14884C11.5414 3.14884 11.7528 3.23471 11.9122 3.4024L15.7144 7.38909C15.8694 7.55206 15.9559 7.77189 15.9559 8.00003ZM15.5695 8.47306L15.5694 8.47311C15.6889 8.34752 15.7558 8.17808 15.7558 8.00008C15.7558 7.82202 15.6883 7.65189 15.5694 7.52699L11.7672 3.54027C11.6459 3.41267 11.4871 3.34889 11.3282 3.34889C11.1929 3.34889 11.0575 3.39565 10.945 3.48839C11.0575 3.39562 11.1929 3.34884 11.3283 3.34884C11.4871 3.34884 11.646 3.41263 11.7673 3.54022L15.5695 7.52694C15.6883 7.65184 15.7559 7.82197 15.7559 8.00003C15.7559 8.17803 15.6889 8.34747 15.5695 8.47306ZM13.6064 7.33553L13.6064 7.33558H6.3253C6.15646 7.33558 6.00341 7.40639 5.89099 7.52163C6.00342 7.40636 6.15648 7.33553 6.32535 7.33553H13.6064ZM11.7672 12.4598C11.7658 12.4613 11.7644 12.4628 11.7629 12.4643L11.7672 12.4598Z"/>
</g>
<defs>
<clipPath id="clip0">
<rect width="16" height="16" fill="white" transform="matrix(1 0 0 -1 0 16)"/>
</clipPath>
</defs>
</svg>
